<svg width="121" height="13" viewBox="0 0 121 13" fill="none" xmlns="http://www.w3.org/2000/svg">
<path d="M10.7727 4H9.36364C9.2803 3.5947 9.13447 3.23864 8.92614 2.93182C8.72159 2.625 8.47159 2.36742 8.17614 2.15909C7.88447 1.94697 7.56061 1.78788 7.20455 1.68182C6.84849 1.57576 6.47727 1.52273 6.09091 1.52273C5.38636 1.52273 4.74811 1.70076 4.17614 2.05682C3.60795 2.41288 3.1553 2.9375 2.81818 3.63068C2.48485 4.32386 2.31818 5.17424 2.31818 6.18182C2.31818 7.18939 2.48485 8.03977 2.81818 8.73295C3.1553 9.42614 3.60795 9.95076 4.17614 10.3068C4.74811 10.6629 5.38636 10.8409 6.09091 10.8409C6.47727 10.8409 6.84849 10.7879 7.20455 10.6818C7.56061 10.5758 7.88447 10.4186 8.17614 10.2102C8.47159 9.99811 8.72159 9.73864 8.92614 9.43182C9.13447 9.12121 9.2803 8.76515 9.36364 8.36364H10.7727C10.6667 8.95833 10.4735 9.49053 10.1932 9.96023C9.91288 10.4299 9.56439 10.8295 9.14773 11.1591C8.73106 11.4848 8.26326 11.733 7.74432 11.9034C7.22917 12.0739 6.67803 12.1591 6.09091 12.1591C5.09849 12.1591 4.21591 11.9167 3.44318 11.4318C2.67045 10.947 2.0625 10.2576 1.61932 9.36364C1.17614 8.4697 0.954545 7.40909 0.954545 6.18182C0.954545 4.95455 1.17614 3.89394 1.61932 3C2.0625 2.10606 2.67045 1.41667 3.44318 0.931818C4.21591 0.446969 5.09849 0.204545 6.09091 0.204545C6.67803 0.204545 7.22917 0.289772 7.74432 0.460227C8.26326 0.630682 8.73106 0.880682 9.14773 1.21023C9.56439 1.53598 9.91288 1.93371 10.1932 2.40341C10.4735 2.86932 10.6667 3.40151 10.7727 4ZM22.8679 6.18182C22.8679 7.40909 22.6463 8.4697 22.2031 9.36364C21.7599 10.2576 21.152 10.947 20.3793 11.4318C19.6065 11.9167 18.724 12.1591 17.7315 12.1591C16.7391 12.1591 15.8565 11.9167 15.0838 11.4318C14.3111 10.947 13.7031 10.2576 13.2599 9.36364C12.8168 8.4697 12.5952 7.40909 12.5952 6.18182C12.5952 4.95455 12.8168 3.89394 13.2599 3C13.7031 2.10606 14.3111 1.41667 15.0838 0.931818C15.8565 0.446969 16.7391 0.204545 17.7315 0.204545C18.724 0.204545 19.6065 0.446969 20.3793 0.931818C21.152 1.41667 21.7599 2.10606 22.2031 3C22.6463 3.89394 22.8679 4.95455 22.8679 6.18182ZM21.5043 6.18182C21.5043 5.17424 21.3357 4.32386 20.9986 3.63068C20.6652 2.9375 20.2126 2.41288 19.6406 2.05682C19.0724 1.70076 18.4361 1.52273 17.7315 1.52273C17.027 1.52273 16.3887 1.70076 15.8168 2.05682C15.2486 2.41288 14.7959 2.9375 14.4588 3.63068C14.1255 4.32386 13.9588 5.17424 13.9588 6.18182C13.9588 7.18939 14.1255 8.03977 14.4588 8.73295C14.7959 9.42614 15.2486 9.95076 15.8168 10.3068C16.3887 10.6629 17.027 10.8409 17.7315 10.8409C18.4361 10.8409 19.0724 10.6629 19.6406 10.3068C20.2126 9.95076 20.6652 9.42614 20.9986 8.73295C21.3357 8.03977 21.5043 7.18939 21.5043 6.18182ZM25.2372 12V0.363636H32.2145V1.61364H26.6463V5.54545H31.6918V6.79545H26.6463V12H25.2372ZM34.6278 12V0.363636H41.6051V1.61364H36.0369V5.54545H41.0824V6.79545H36.0369V12H34.6278ZM44.0185 12V0.363636H51.0412V1.61364H45.4276V5.54545H50.6776V6.79545H45.4276V10.75H51.1321V12H44.0185ZM53.581 12V0.363636H60.6037V1.61364H54.9901V5.54545H60.2401V6.79545H54.9901V10.75H60.6946V12H53.581ZM67.6435 12V0.363636H69.0526V5.54545H75.2571V0.363636H76.6662V12H75.2571V6.79545H69.0526V12H67.6435ZM89.3054 6.18182C89.3054 7.40909 89.0838 8.4697 88.6406 9.36364C88.1974 10.2576 87.5895 10.947 86.8168 11.4318C86.044 11.9167 85.1615 12.1591 84.169 12.1591C83.1766 12.1591 82.294 11.9167 81.5213 11.4318C80.7486 10.947 80.1406 10.2576 79.6974 9.36364C79.2543 8.4697 79.0327 7.40909 79.0327 6.18182C79.0327 4.95455 79.2543 3.89394 79.6974 3C80.1406 2.10606 80.7486 1.41667 81.5213 0.931818C82.294 0.446969 83.1766 0.204545 84.169 0.204545C85.1615 0.204545 86.044 0.446969 86.8168 0.931818C87.5895 1.41667 88.1974 2.10606 88.6406 3C89.0838 3.89394 89.3054 4.95455 89.3054 6.18182ZM87.9418 6.18182C87.9418 5.17424 87.7732 4.32386 87.4361 3.63068C87.1027 2.9375 86.6501 2.41288 86.0781 2.05682C85.5099 1.70076 84.8736 1.52273 84.169 1.52273C83.4645 1.52273 82.8262 1.70076 82.2543 2.05682C81.6861 2.41288 81.2334 2.9375 80.8963 3.63068C80.563 4.32386 80.3963 5.17424 80.3963 6.18182C80.3963 7.18939 80.563 8.03977 80.8963 8.73295C81.2334 9.42614 81.6861 9.95076 82.2543 10.3068C82.8262 10.6629 83.4645 10.8409 84.169 10.8409C84.8736 10.8409 85.5099 10.6629 86.0781 10.3068C86.6501 9.95076 87.1027 9.42614 87.4361 8.73295C87.7732 8.03977 87.9418 7.18939 87.9418 6.18182ZM99.3111 0.363636H100.72V8.06818C100.72 8.86364 100.533 9.57386 100.158 10.1989C99.7865 10.8201 99.2618 11.3106 98.5838 11.6705C97.9058 12.0265 97.1103 12.2045 96.1974 12.2045C95.2846 12.2045 94.4891 12.0265 93.8111 11.6705C93.133 11.3106 92.6065 10.8201 92.2315 10.1989C91.8603 9.57386 91.6747 8.86364 91.6747 8.06818V0.363636H93.0838V7.95455C93.0838 8.52273 93.2088 9.02841 93.4588 9.47159C93.7088 9.91098 94.0649 10.2576 94.527 10.5114C94.9929 10.7614 95.5497 10.8864 96.1974 10.8864C96.8452 10.8864 97.402 10.7614 97.8679 10.5114C98.3338 10.2576 98.6899 9.91098 98.9361 9.47159C99.1861 9.02841 99.3111 8.52273 99.3111 7.95455V0.363636ZM109.898 3.27273C109.83 2.69697 109.553 2.25 109.068 1.93182C108.583 1.61364 107.989 1.45455 107.284 1.45455C106.769 1.45455 106.318 1.53788 105.932 1.70455C105.549 1.87121 105.25 2.10038 105.034 2.39205C104.822 2.68371 104.716 3.01515 104.716 3.38636C104.716 3.69697 104.79 3.96401 104.938 4.1875C105.089 4.4072 105.282 4.59091 105.517 4.73864C105.752 4.88258 105.998 5.00189 106.256 5.09659C106.513 5.1875 106.75 5.26136 106.966 5.31818L108.148 5.63636C108.451 5.71591 108.788 5.82576 109.159 5.96591C109.534 6.10606 109.892 6.29735 110.233 6.53977C110.578 6.77841 110.862 7.08523 111.085 7.46023C111.309 7.83523 111.42 8.29545 111.42 8.84091C111.42 9.4697 111.256 10.0379 110.926 10.5455C110.6 11.053 110.123 11.4564 109.494 11.7557C108.869 12.0549 108.11 12.2045 107.216 12.2045C106.383 12.2045 105.661 12.0701 105.051 11.8011C104.445 11.5322 103.968 11.1572 103.619 10.6761C103.275 10.1951 103.08 9.63636 103.034 9H104.489C104.527 9.43939 104.674 9.80303 104.932 10.0909C105.193 10.375 105.523 10.5871 105.92 10.7273C106.322 10.8636 106.754 10.9318 107.216 10.9318C107.754 10.9318 108.237 10.8447 108.665 10.6705C109.093 10.4924 109.432 10.2462 109.682 9.93182C109.932 9.61364 110.057 9.24242 110.057 8.81818C110.057 8.43182 109.949 8.11742 109.733 7.875C109.517 7.63258 109.233 7.43561 108.881 7.28409C108.528 7.13258 108.148 7 107.739 6.88636L106.307 6.47727C105.398 6.21591 104.678 5.8428 104.148 5.35795C103.617 4.87311 103.352 4.23864 103.352 3.45455C103.352 2.80303 103.528 2.23485 103.881 1.75C104.237 1.26136 104.714 0.882575 105.312 0.613636C105.915 0.340909 106.587 0.204545 107.33 0.204545C108.08 0.204545 108.746 0.339015 109.33 0.607954C109.913 0.873105 110.375 1.23674 110.716 1.69886C111.061 2.16098 111.242 2.68561 111.261 3.27273H109.898ZM113.737 12V0.363636H120.76V1.61364H115.146V5.54545H120.396V6.79545H115.146V10.75H120.851V12H113.737Z" fill="#EEEEEE"/>
</svg>
